<?xml version="1.0" encoding="UTF-8"?>
<svg xmlns="http://www.w3.org/2000/svg" width="1080" height="2340" viewBox="0 0 1080 2340">
  <defs>
    <linearGradient id="bg" x1="0" x2="1" y1="0" y2="1">
      <stop offset="0%" stop-color="#fcf9f4"/>
      <stop offset="100%" stop-color="#f7f2e8"/>
    </linearGradient>
    <linearGradient id="hero" x1="0" x2="1" y1="0" y2="1">
      <stop offset="0%" stop-color="#D8C08F"/>
      <stop offset="100%" stop-color="#BE9347"/>
    </linearGradient>
    <filter id="shadow" x="-20%" y="-20%" width="140%" height="140%">
      <feDropShadow dx="0" dy="8" stdDeviation="10" flood-opacity="0.12" flood-color="#6e5f4f"/>
    </filter>
  </defs>

  <rect width="100%" height="100%" fill="url(#bg)"/>
  <rect x="0" y="0" width="100%" height="120" fill="#fcf9f4"/>
  <text x="60" y="78" font-family="Georgia, serif" font-size="42" fill="#823b18">Spark ✦</text>
  <text x="60" y="130" font-family="Arial, sans-serif" font-size="30" fill="#7D6F5E">Bugün ne söyleyeceksin?</text>

  
  <rect x="60" y="190" rx="24" ry="24" width="960" height="420" fill="#ffffff" stroke="#E8E3DA"/>
  <text x="96" y="260" font-family="Georgia, serif" font-size="40" fill="#C5A059">Bugün ne söyleyeceksin?</text>

  <!-- daily story row 1 -->
  <circle cx="108" cy="326" r="16" fill="none" stroke="#C5A059" stroke-width="3"/>
  <text cx="108" cy="332" x="108" y="332" font-family="Arial, sans-serif" font-size="18" fill="#C5A059" text-anchor="middle">💬</text>
  <text x="140" y="320" font-family="Georgia, serif" font-size="32" fill="#1A1A1A">Atomik Alışkanlıklar</text>
  <text x="140" y="354" font-family="Arial, sans-serif" font-size="22" fill="#7D6F5E">Zihin ve Psikoloji · 5 dk</text>

  <!-- quick CTA button -->
  <rect x="96" y="376" rx="14" ry="14" width="880" height="68" fill="#823b18"/>
  <text x="408" y="420" font-family="Arial, sans-serif" font-size="28" fill="#fff">🗣 Sohbette Kullan</text>

  <!-- daily story row 2 -->
  <circle cx="108" cy="488" r="16" fill="none" stroke="#E8E3DA" stroke-width="3"/>
  <text x="140" y="482" font-family="Georgia, serif" font-size="32" fill="#1A1A1A">İkna Sanatı</text>
  <text x="140" y="514" font-family="Arial, sans-serif" font-size="22" fill="#7D6F5E">Sosyal Beceriler · 6 dk</text>
  <text x="920" y="494" font-family="Arial, sans-serif" font-size="26" fill="#7D6F5E">›</text>

  <!-- daily story row 3 (locked) -->
  <circle cx="108" cy="564" r="16" fill="none" stroke="#E8E3DA" stroke-width="3"/>
  <text x="140" y="558" font-family="Georgia, serif" font-size="32" fill="#7D6F5E" opacity="0.6">Derin İş</text>
  <text x="140" y="590" font-family="Arial, sans-serif" font-size="22" fill="#7D6F5E" opacity="0.5">Kariyer ve Başarı · 4 dk</text>
  <text x="920" y="570" font-family="Arial, sans-serif" font-size="24" fill="#7D6F5E">🔒</text>
  <g>
    <rect x="60" y="660" rx="38" ry="38" width="180" height="76" fill="#823b18" stroke="#823b18"/>
    <text x="90" y="708" font-family="Arial, sans-serif" font-size="30" fill="#FFFFFF">Tümü</text>
  </g>
  <g>
    <rect x="256" y="660" rx="38" ry="38" width="222" height="76" fill="transparent" stroke="#E8E3DA"/>
    <text x="286" y="708" font-family="Arial, sans-serif" font-size="30" fill="#823b18">Psikoloji</text>
  </g>
  <g>
    <rect x="494" y="660" rx="38" ry="38" width="180" height="76" fill="transparent" stroke="#E8E3DA"/>
    <text x="524" y="708" font-family="Arial, sans-serif" font-size="30" fill="#823b18">Finans</text>
  </g>
  <g>
    <rect x="690" y="660" rx="38" ry="38" width="204" height="76" fill="transparent" stroke="#E8E3DA"/>
    <text x="720" y="708" font-family="Arial, sans-serif" font-size="30" fill="#823b18">Liderlik</text>
  </g>
  <g filter="url(#shadow)">
    <rect x="60" y="780" rx="28" ry="28" width="960" height="310" fill="#ffffff" stroke="#E8E3DA"/>
    <text x="88" y="828" font-family="Arial, sans-serif" font-size="22" fill="#7D6F5E">Psikoloji</text>
    <text x="88" y="880" font-family="Georgia, serif" font-size="38" fill="#1A1A1A">Hızlı Düşün, Yavaş Karar Ver</text>
    <circle cx="102" cy="1028" r="10" fill="none" stroke="#C5A059" stroke-width="2"/>
    <text x="116" y="1034" font-family="Arial, sans-serif" font-size="22" fill="#C5A059">Sohbette Kullanılabilir</text>
    <text x="88" y="1062" font-family="Arial, sans-serif" font-size="20" fill="#7D6F5E" opacity="0.6">5 dk · Psikoloji</text>
  </g>
  <g filter="url(#shadow)">
    <rect x="60" y="1124" rx="28" ry="28" width="470" height="280" fill="#ffffff" stroke="#E8E3DA"/>
    <text x="88" y="1172" font-family="Arial, sans-serif" font-size="22" fill="#7D6F5E">Psikoloji</text>
    <text x="88" y="1224" font-family="Georgia, serif" font-size="38" fill="#1A1A1A">Düşünme Hataları</text>
    <circle cx="102" cy="1342" r="10" fill="none" stroke="#C5A059" stroke-width="2"/>
    <text x="116" y="1348" font-family="Arial, sans-serif" font-size="22" fill="#C5A059">Sohbette Kullanılabilir</text>
    <text x="88" y="1376" font-family="Arial, sans-serif" font-size="20" fill="#7D6F5E" opacity="0.6">4 dk · Psikoloji</text>
  </g>
  <g filter="url(#shadow)">
    <rect x="550" y="1124" rx="28" ry="28" width="470" height="280" fill="#ffffff" stroke="#E8E3DA"/>
    <text x="578" y="1172" font-family="Arial, sans-serif" font-size="22" fill="#7D6F5E">Liderlik</text>
    <text x="578" y="1224" font-family="Georgia, serif" font-size="38" fill="#1A1A1A">Büyüme Zihniyeti</text>
    <circle cx="592" cy="1342" r="10" fill="none" stroke="#C5A059" stroke-width="2"/>
    <text x="606" y="1348" font-family="Arial, sans-serif" font-size="22" fill="#C5A059">Sohbette Kullanılabilir</text>
    <text x="578" y="1376" font-family="Arial, sans-serif" font-size="20" fill="#7D6F5E" opacity="0.6">6 dk · Liderlik</text>
  </g>
  <g filter="url(#shadow)">
    <rect x="60" y="1438" rx="28" ry="28" width="470" height="280" fill="#ffffff" stroke="#E8E3DA"/>
    <text x="88" y="1486" font-family="Arial, sans-serif" font-size="22" fill="#7D6F5E">İş &amp; Girişim</text>
    <text x="88" y="1538" font-family="Georgia, serif" font-size="38" fill="#1A1A1A">İş Modeli Tasarımı</text>
    <circle cx="102" cy="1656" r="10" fill="none" stroke="#C5A059" stroke-width="2"/>
    <text x="116" y="1662" font-family="Arial, sans-serif" font-size="22" fill="#C5A059">Sohbette Kullanılabilir</text>
    <text x="88" y="1690" font-family="Arial, sans-serif" font-size="20" fill="#7D6F5E" opacity="0.6">7 dk · İş &amp; Girişim</text>
  </g>
  <g filter="url(#shadow)">
    <rect x="550" y="1438" rx="28" ry="28" width="470" height="280" fill="#ffffff" stroke="#E8E3DA"/>
    <text x="578" y="1486" font-family="Arial, sans-serif" font-size="22" fill="#7D6F5E">Verimlilik</text>
    <text x="578" y="1538" font-family="Georgia, serif" font-size="38" fill="#1A1A1A">Zihin Notları</text>
    <circle cx="592" cy="1656" r="10" fill="none" stroke="#C5A059" stroke-width="2"/>
    <text x="606" y="1662" font-family="Arial, sans-serif" font-size="22" fill="#C5A059">Sohbette Kullanılabilir</text>
    <text x="578" y="1690" font-family="Arial, sans-serif" font-size="20" fill="#7D6F5E" opacity="0.6">3 dk · Verimlilik</text>
  </g>
  <rect x="0" y="2190" width="1080" height="150" fill="#fcf9f4"/>
  <line x1="60" y1="2190" x2="1020" y2="2190" stroke="#E8E3DA"/>
  <text x="120" y="2278" font-family="Arial, sans-serif" font-size="28" fill="#823b18">Ana Sayfa</text>
  <text x="420" y="2278" font-family="Arial, sans-serif" font-size="28" fill="#7D6F5E">Kütüphane</text>
  <text x="760" y="2278" font-family="Arial, sans-serif" font-size="28" fill="#7D6F5E">Profil</text>
</svg>