<?xml version="1.0" encoding="UTF-8"?>
<svg xmlns="http://www.w3.org/2000/svg" width="1080" height="2340" viewBox="0 0 1080 2340">
  <defs>
    <linearGradient id="bg" x1="0" x2="1" y1="0" y2="1">
      <stop offset="0%" stop-color="#fcf9f4"/>
      <stop offset="100%" stop-color="#f7f2e8"/>
    </linearGradient>
    <linearGradient id="hero" x1="0" x2="1" y1="0" y2="1">
      <stop offset="0%" stop-color="#D8C08F"/>
      <stop offset="100%" stop-color="#BE9347"/>
    </linearGradient>
    <filter id="shadow" x="-20%" y="-20%" width="140%" height="140%">
      <feDropShadow dx="0" dy="8" stdDeviation="10" flood-opacity="0.12" flood-color="#6e5f4f"/>
    </filter>
  </defs>

  <rect width="100%" height="100%" fill="url(#bg)"/>
  <rect x="0" y="0" width="100%" height="120" fill="#fcf9f4"/>
  <text x="60" y="78" font-family="Georgia, serif" font-size="42" fill="#823b18">Spark ✦</text>
  <text x="60" y="130" font-family="Arial, sans-serif" font-size="30" fill="#7D6F5E">Kütüphane</text>

  
  <text x="60" y="230" font-family="Arial, sans-serif" font-size="30" fill="#7D6F5E">Favoriler</text>
  
  <g filter="url(#shadow)">
    <rect x="60" y="260" rx="28" ry="28" width="470" height="320" fill="#ffffff" stroke="#E8E3DA"/>
    <text x="88" y="324" font-family="Georgia, serif" font-size="40" fill="#1A1A1A">Duygusal Çeviklik</text>
    <text x="88" y="368" font-family="Arial, sans-serif" font-size="28" fill="#7D6F5E">3 dk • Psikoloji</text>
  </g>
  
  <g filter="url(#shadow)">
    <rect x="550" y="260" rx="28" ry="28" width="470" height="320" fill="#ffffff" stroke="#E8E3DA"/>
    <text x="578" y="324" font-family="Georgia, serif" font-size="40" fill="#1A1A1A">Derin İş</text>
    <text x="578" y="368" font-family="Arial, sans-serif" font-size="28" fill="#7D6F5E">5 dk • Verimlilik</text>
  </g>

  <text x="60" y="650" font-family="Arial, sans-serif" font-size="30" fill="#7D6F5E">Geçmiş</text>
  
  <g filter="url(#shadow)">
    <rect x="60" y="680" rx="28" ry="28" width="960" height="190" fill="#ffffff" stroke="#E8E3DA"/>
    <text x="88" y="744" font-family="Georgia, serif" font-size="40" fill="#1A1A1A">Liderliğin 5 Seviyesi</text>
    <text x="88" y="788" font-family="Arial, sans-serif" font-size="28" fill="#7D6F5E">Dün okundu • 6 dk</text>
  </g>
  
  <g filter="url(#shadow)">
    <rect x="60" y="900" rx="28" ry="28" width="960" height="190" fill="#ffffff" stroke="#E8E3DA"/>
    <text x="88" y="964" font-family="Georgia, serif" font-size="40" fill="#1A1A1A">Bilinçli Dikkat</text>
    <text x="88" y="1008" font-family="Arial, sans-serif" font-size="28" fill="#7D6F5E">2 gün önce • 4 dk</text>
  </g>
  
  <g filter="url(#shadow)">
    <rect x="60" y="1120" rx="28" ry="28" width="960" height="190" fill="#ffffff" stroke="#E8E3DA"/>
    <text x="88" y="1184" font-family="Georgia, serif" font-size="40" fill="#1A1A1A">Büyüme Zihniyeti</text>
    <text x="88" y="1228" font-family="Arial, sans-serif" font-size="28" fill="#7D6F5E">3 gün önce • 5 dk</text>
  </g>
</svg>