<?xml version="1.0" encoding="UTF-8"?>
<svg xmlns="http://www.w3.org/2000/svg" width="1080" height="2340" viewBox="0 0 1080 2340">
  <defs>
    <linearGradient id="bg" x1="0" x2="1" y1="0" y2="1">
      <stop offset="0%" stop-color="#fcf9f4"/>
      <stop offset="100%" stop-color="#f7f2e8"/>
    </linearGradient>
    <linearGradient id="hero" x1="0" x2="1" y1="0" y2="1">
      <stop offset="0%" stop-color="#D8C08F"/>
      <stop offset="100%" stop-color="#BE9347"/>
    </linearGradient>
    <filter id="shadow" x="-20%" y="-20%" width="140%" height="140%">
      <feDropShadow dx="0" dy="8" stdDeviation="10" flood-opacity="0.12" flood-color="#6e5f4f"/>
    </filter>
  </defs>

  <rect width="100%" height="100%" fill="url(#bg)"/>
  <rect x="0" y="0" width="100%" height="120" fill="#fcf9f4"/>
  <text x="60" y="78" font-family="Georgia, serif" font-size="42" fill="#823b18">Spark ✦</text>
  <text x="60" y="130" font-family="Arial, sans-serif" font-size="30" fill="#7D6F5E">İstatistik</text>

  
  <text x="60" y="230" font-family="Georgia, serif" font-size="64" fill="#1A1A1A">İlerlemen</text>
  <text x="60" y="276" font-family="Arial, sans-serif" font-size="30" fill="#7D6F5E">Son 90 günlük okuma yoğunluğu</text>
  <rect x="60" y="300" rx="28" ry="28" width="960" height="560" fill="#ffffff" stroke="#E8E3DA"/>
  <rect x="80" y="330" width="54" height="54" rx="10" fill="#EFE8D9"/><rect x="144" y="330" width="54" height="54" rx="10" fill="#E0D0B3"/><rect x="208" y="330" width="54" height="54" rx="10" fill="#D0B084"/><rect x="272" y="330" width="54" height="54" rx="10" fill="#B8894A"/><rect x="336" y="330" width="54" height="54" rx="10" fill="#EFE8D9"/><rect x="400" y="330" width="54" height="54" rx="10" fill="#E0D0B3"/><rect x="464" y="330" width="54" height="54" rx="10" fill="#D0B084"/><rect x="528" y="330" width="54" height="54" rx="10" fill="#B8894A"/><rect x="592" y="330" width="54" height="54" rx="10" fill="#EFE8D9"/><rect x="656" y="330" width="54" height="54" rx="10" fill="#E0D0B3"/><rect x="720" y="330" width="54" height="54" rx="10" fill="#D0B084"/><rect x="784" y="330" width="54" height="54" rx="10" fill="#B8894A"/><rect x="848" y="330" width="54" height="54" rx="10" fill="#EFE8D9"/><rect x="80" y="394" width="54" height="54" rx="10" fill="#E0D0B3"/><rect x="144" y="394" width="54" height="54" rx="10" fill="#D0B084"/><rect x="208" y="394" width="54" height="54" rx="10" fill="#B8894A"/><rect x="272" y="394" width="54" height="54" rx="10" fill="#EFE8D9"/><rect x="336" y="394" width="54" height="54" rx="10" fill="#E0D0B3"/><rect x="400" y="394" width="54" height="54" rx="10" fill="#D0B084"/><rect x="464" y="394" width="54" height="54" rx="10" fill="#B8894A"/><rect x="528" y="394" width="54" height="54" rx="10" fill="#EFE8D9"/><rect x="592" y="394" width="54" height="54" rx="10" fill="#E0D0B3"/><rect x="656" y="394" width="54" height="54" rx="10" fill="#D0B084"/><rect x="720" y="394" width="54" height="54" rx="10" fill="#B8894A"/><rect x="784" y="394" width="54" height="54" rx="10" fill="#EFE8D9"/><rect x="848" y="394" width="54" height="54" rx="10" fill="#E0D0B3"/><rect x="80" y="458" width="54" height="54" rx="10" fill="#D0B084"/><rect x="144" y="458" width="54" height="54" rx="10" fill="#B8894A"/><rect x="208" y="458" width="54" height="54" rx="10" fill="#EFE8D9"/><rect x="272" y="458" width="54" height="54" rx="10" fill="#E0D0B3"/><rect x="336" y="458" width="54" height="54" rx="10" fill="#D0B084"/><rect x="400" y="458" width="54" height="54" rx="10" fill="#B8894A"/><rect x="464" y="458" width="54" height="54" rx="10" fill="#EFE8D9"/><rect x="528" y="458" width="54" height="54" rx="10" fill="#E0D0B3"/><rect x="592" y="458" width="54" height="54" rx="10" fill="#D0B084"/><rect x="656" y="458" width="54" height="54" rx="10" fill="#B8894A"/><rect x="720" y="458" width="54" height="54" rx="10" fill="#EFE8D9"/><rect x="784" y="458" width="54" height="54" rx="10" fill="#E0D0B3"/><rect x="848" y="458" width="54" height="54" rx="10" fill="#D0B084"/><rect x="80" y="522" width="54" height="54" rx="10" fill="#B8894A"/><rect x="144" y="522" width="54" height="54" rx="10" fill="#EFE8D9"/><rect x="208" y="522" width="54" height="54" rx="10" fill="#E0D0B3"/><rect x="272" y="522" width="54" height="54" rx="10" fill="#D0B084"/><rect x="336" y="522" width="54" height="54" rx="10" fill="#B8894A"/><rect x="400" y="522" width="54" height="54" rx="10" fill="#EFE8D9"/><rect x="464" y="522" width="54" height="54" rx="10" fill="#E0D0B3"/><rect x="528" y="522" width="54" height="54" rx="10" fill="#D0B084"/><rect x="592" y="522" width="54" height="54" rx="10" fill="#B8894A"/><rect x="656" y="522" width="54" height="54" rx="10" fill="#EFE8D9"/><rect x="720" y="522" width="54" height="54" rx="10" fill="#E0D0B3"/><rect x="784" y="522" width="54" height="54" rx="10" fill="#D0B084"/><rect x="848" y="522" width="54" height="54" rx="10" fill="#B8894A"/><rect x="80" y="586" width="54" height="54" rx="10" fill="#EFE8D9"/><rect x="144" y="586" width="54" height="54" rx="10" fill="#E0D0B3"/><rect x="208" y="586" width="54" height="54" rx="10" fill="#D0B084"/><rect x="272" y="586" width="54" height="54" rx="10" fill="#B8894A"/><rect x="336" y="586" width="54" height="54" rx="10" fill="#EFE8D9"/><rect x="400" y="586" width="54" height="54" rx="10" fill="#E0D0B3"/><rect x="464" y="586" width="54" height="54" rx="10" fill="#D0B084"/><rect x="528" y="586" width="54" height="54" rx="10" fill="#B8894A"/><rect x="592" y="586" width="54" height="54" rx="10" fill="#EFE8D9"/><rect x="656" y="586" width="54" height="54" rx="10" fill="#E0D0B3"/><rect x="720" y="586" width="54" height="54" rx="10" fill="#D0B084"/><rect x="784" y="586" width="54" height="54" rx="10" fill="#B8894A"/><rect x="848" y="586" width="54" height="54" rx="10" fill="#EFE8D9"/><rect x="80" y="650" width="54" height="54" rx="10" fill="#E0D0B3"/><rect x="144" y="650" width="54" height="54" rx="10" fill="#D0B084"/><rect x="208" y="650" width="54" height="54" rx="10" fill="#B8894A"/><rect x="272" y="650" width="54" height="54" rx="10" fill="#EFE8D9"/><rect x="336" y="650" width="54" height="54" rx="10" fill="#E0D0B3"/><rect x="400" y="650" width="54" height="54" rx="10" fill="#D0B084"/><rect x="464" y="650" width="54" height="54" rx="10" fill="#B8894A"/><rect x="528" y="650" width="54" height="54" rx="10" fill="#EFE8D9"/><rect x="592" y="650" width="54" height="54" rx="10" fill="#E0D0B3"/><rect x="656" y="650" width="54" height="54" rx="10" fill="#D0B084"/><rect x="720" y="650" width="54" height="54" rx="10" fill="#B8894A"/><rect x="784" y="650" width="54" height="54" rx="10" fill="#EFE8D9"/><rect x="848" y="650" width="54" height="54" rx="10" fill="#E0D0B3"/><rect x="80" y="714" width="54" height="54" rx="10" fill="#D0B084"/><rect x="144" y="714" width="54" height="54" rx="10" fill="#B8894A"/><rect x="208" y="714" width="54" height="54" rx="10" fill="#EFE8D9"/><rect x="272" y="714" width="54" height="54" rx="10" fill="#E0D0B3"/><rect x="336" y="714" width="54" height="54" rx="10" fill="#D0B084"/><rect x="400" y="714" width="54" height="54" rx="10" fill="#B8894A"/><rect x="464" y="714" width="54" height="54" rx="10" fill="#EFE8D9"/><rect x="528" y="714" width="54" height="54" rx="10" fill="#E0D0B3"/><rect x="592" y="714" width="54" height="54" rx="10" fill="#D0B084"/><rect x="656" y="714" width="54" height="54" rx="10" fill="#B8894A"/><rect x="720" y="714" width="54" height="54" rx="10" fill="#EFE8D9"/><rect x="784" y="714" width="54" height="54" rx="10" fill="#E0D0B3"/><rect x="848" y="714" width="54" height="54" rx="10" fill="#D0B084"/>

  <text x="60" y="940" font-family="Arial, sans-serif" font-size="30" fill="#7D6F5E">Rozetler</text>
  
  <g filter="url(#shadow)">
    <rect x="60" y="970" rx="28" ry="28" width="470" height="260" fill="#ffffff" stroke="#E8E3DA"/>
    <text x="88" y="1034" font-family="Georgia, serif" font-size="40" fill="#1A1A1A">🔥 7 Gün Seri</text>
    <text x="88" y="1078" font-family="Arial, sans-serif" font-size="28" fill="#7D6F5E">Kazanıldı</text>
  </g>
  
  <g filter="url(#shadow)">
    <rect x="550" y="970" rx="28" ry="28" width="470" height="260" fill="#ffffff" stroke="#E8E3DA"/>
    <text x="578" y="1034" font-family="Georgia, serif" font-size="40" fill="#1A1A1A">🧭 Keşifçi</text>
    <text x="578" y="1078" font-family="Arial, sans-serif" font-size="28" fill="#7D6F5E">Kazanıldı</text>
  </g>
  
  <g filter="url(#shadow)">
    <rect x="60" y="1250" rx="28" ry="28" width="470" height="260" fill="#ffffff" stroke="#E8E3DA"/>
    <text x="88" y="1314" font-family="Georgia, serif" font-size="40" fill="#1A1A1A">🏛️ Filozof</text>
    <text x="88" y="1358" font-family="Arial, sans-serif" font-size="28" fill="#7D6F5E">Kilidi Açılmadı</text>
  </g>
  
  <g filter="url(#shadow)">
    <rect x="550" y="1250" rx="28" ry="28" width="470" height="260" fill="#ffffff" stroke="#E8E3DA"/>
    <text x="578" y="1314" font-family="Georgia, serif" font-size="40" fill="#1A1A1A">📜 Bilge</text>
    <text x="578" y="1358" font-family="Arial, sans-serif" font-size="28" fill="#7D6F5E">Kilidi Açılmadı</text>
  </g>
</svg>